<?xml version="1.0" encoding="utf-8"?>
<!-- Generator: Adobe Illustrator 27.3.1, SVG Export Plug-In . SVG Version: 6.00 Build 0)  -->
<svg version="1.1" id="Layer_1" xmlns="http://www.w3.org/2000/svg" xmlns:xlink="http://www.w3.org/1999/xlink" x="0px" y="0px"
	 viewBox="0 0 2000 630" style="enable-background:new 0 0 2000 630;" xml:space="preserve">
<style type="text/css">
	.st0{fill:none;}
	.st1{fill:#F5C518;}
	.st2{fill:#FFFFFF;}
</style>
<g>
	<g>
		<path class="st1" d="M611.68,323.85c6.03-3.62,10.74-8.71,14.13-15.28c3.38-6.57,5.08-14.24,5.08-23.03
			c0-8.78-1.68-16.46-5.03-23.03c-3.35-6.57-8.06-11.66-14.13-15.28c-6.07-3.62-13.16-5.43-21.27-5.43h-36.5h-16.59h-10.96v146.31
			h27.55v-58.82h16.72l32.96,58.82h33.38l-34.94-60.25C605.53,326.95,608.73,325.62,611.68,323.85z M553.96,268.34h34.29
			c4.36,0,7.83,1.58,10.41,4.73c2.58,3.15,3.87,7.31,3.87,12.47c-0.07,5.16-1.39,9.32-3.97,12.47c-2.58,3.15-6.02,4.73-10.31,4.73
			h-34.29V268.34z"/>
		<polygon class="st1" points="674.72,241.9 664.77,241.9 664.77,388.11 674.72,388.11 692.32,388.11 762.71,388.11 762.71,361.56 
			692.32,361.56 692.32,328.78 751.65,328.78 751.65,302.23 692.32,302.23 692.32,268.44 762.71,268.44 762.71,241.9 692.32,241.9 
					"/>
		<path class="st1" d="M823.9,275.03c4.26-4.73,10.24-7.09,17.95-7.09c3.95,0,7.52,0.9,10.71,2.71c3.18,1.81,5.9,4.41,8.15,7.79
			c2.25,3.39,3.9,7.53,4.98,12.42h28.56c-1.81-10.73-5.08-19.84-9.8-27.35c-4.73-7.51-10.69-13.24-17.9-17.19
			c-7.21-3.95-15.44-5.93-24.69-5.93c-11.2,0-20.73,2.15-28.61,6.44c-7.88,4.29-13.89,10.49-18.05,18.6
			c-4.16,8.11-6.23,17.97-6.23,29.56v40.12c0,11.53,2.08,21.37,6.23,29.51c4.16,8.15,10.17,14.35,18.05,18.6
			c7.88,4.26,17.41,6.38,28.61,6.38c9.25,0,17.46-1.98,24.64-5.93c7.17-3.95,13.12-9.7,17.85-17.25c4.73-7.54,8.03-16.64,9.9-27.3
			h-28.56c-1.54,7.31-4.39,12.96-8.55,16.94c-4.16,3.99-9.25,5.98-15.28,5.98c-7.71,0-13.69-2.35-17.95-7.04
			c-4.26-4.69-6.38-11.33-6.38-19.91v-40.12C817.51,286.41,819.64,279.76,823.9,275.03z"/>
		<path class="st1" d="M1006.76,323.85c6.03-3.62,10.74-8.71,14.13-15.28c3.38-6.57,5.08-14.24,5.08-23.03
			c0-8.78-1.68-16.46-5.03-23.03c-3.35-6.57-8.06-11.66-14.13-15.28c-6.07-3.62-13.16-5.43-21.27-5.43h-36.5h-16.59h-10.96v146.31
			h27.55v-58.82h16.71l32.96,58.82h33.38l-34.94-60.25C1000.6,326.95,1003.81,325.62,1006.76,323.85z M949.04,268.34h34.29
			c4.36,0,7.83,1.58,10.41,4.73c2.58,3.15,3.87,7.31,3.87,12.47c-0.07,5.16-1.39,9.32-3.97,12.47c-2.58,3.15-6.02,4.73-10.31,4.73
			h-34.29V268.34z"/>
		<path class="st1" d="M1133.05,335.92c0,8.38-2.26,14.88-6.79,19.51c-4.53,4.63-10.91,6.94-19.16,6.94
			c-8.18,0-14.52-2.31-19.01-6.94c-4.49-4.62-6.74-11.13-6.74-19.51V241.9h-27.55v93.32c0,17.3,4.64,30.69,13.93,40.17
			c9.28,9.49,22.41,14.23,39.37,14.23c17.03,0,30.2-4.74,39.52-14.23c9.32-9.49,13.98-22.88,13.98-40.17V241.9h-27.55V335.92z"/>
		<rect x="1190.87" y="241.9" class="st1" width="28.56" height="146.21"/>
		<polygon class="st1" points="1241.64,268.44 1281.46,268.44 1281.46,388.11 1309.02,388.11 1309.02,268.44 1348.84,268.44 
			1348.84,241.9 1241.64,241.9 		"/>
		<path class="st1" d="M1451.86,247.48c-6.87-3.72-14.93-5.58-24.18-5.58h-31.07h-14.98h-12.57v146.21h27.55v-56.71h31.07
			c9.18,0,17.23-1.85,24.13-5.53c6.9-3.69,12.27-8.88,16.09-15.59c3.82-6.7,5.73-14.55,5.73-23.53c0-9.05-1.91-16.93-5.73-23.63
			C1464.07,256.41,1458.73,251.2,1451.86,247.48z M1440.44,299.87c-3.09,3.32-7.11,4.98-12.07,4.98h-31.78v-36.4h31.78
			c5.03,0,9.07,1.66,12.12,4.98c3.05,3.32,4.58,7.76,4.58,13.32C1445.07,292.18,1443.52,296.55,1440.44,299.87z"/>
		<path class="st1" d="M1534.16,241.9l-55.91,146.21h29.67l8.21-23.43h53.57l8.21,23.43h29.66l-55.91-146.21H1534.16z
			 M1525.43,338.13l17.48-49.88l17.48,49.88H1525.43z"/>
		<polygon class="st1" points="1605.65,268.44 1645.47,268.44 1645.47,388.11 1673.02,388.11 1673.02,268.44 1712.84,268.44 
			1712.84,241.9 1605.65,241.9 		"/>
		<polygon class="st1" points="1813.1,241.9 1813.1,302.33 1760.6,302.33 1760.6,241.9 1733.05,241.9 1733.05,388.11 1760.6,388.11 
			1760.6,328.88 1813.1,328.88 1813.1,388.11 1840.65,388.11 1840.65,241.9 		"/>
	</g>
	<g>
		<path class="st1" d="M335.88,340.06l-33.98,107.39H253.9l31.46-99.08l-41.05-45.15l11.76-37.34h45.2c4.29,0,8.32-1.41,11.59-3.85
			c3.26-2.44,5.76-5.92,6.96-10.02c3.68-12.48-5.77-24.97-18.77-24.82l-45.24,0.52l-12.07,38.17l-36.36,114.92h-48.02l35.73-114.92
			l11.9-38.24l-33.61-45.08h138.11c41.54,0,69.04,43.1,51.55,80.78c-10.45,22.52-32.12,37.49-56.56,39.61L335.88,340.06z"/>
		<path class="st1" d="M462.99,323.78c0,7.93-1.68,16.06-5.35,23.94c-11.3,24.34-35.68,39.9-62.51,39.9h-61.96l11.81-37.36h50.89
			c4.29,0,8.32-1.4,11.59-3.86c3.27-2.44,5.77-5.91,6.96-10.02c3.68-12.47-5.77-24.95-18.77-24.81l-61.54,0.26h-9.52
			c0.97-0.42,1.93-0.87,2.88-1.35c0.37-0.18,0.75-0.36,1.12-0.57c19.67-7.32,36.07-22.15,45.12-41.62c0.2-0.45,0.41-0.9,0.6-1.35
			h31.77C438.94,266.94,462.99,293.89,462.99,323.78z"/>
	</g>
</g>
</svg>
